<svg display='none' xmlns="http://www.w3.org/2000/svg">
  <symbol id="telegram" viewBox="0 0 496 512">
    <path d="M248 8C111 8 0 119 0 256s111 248 248 248 248-111 248-248S385 8 248 8zm121.8 169.9l-40.7 191.8c-3 13.6-11.1 16.9-22.4 10.5l-62-45.7-29.9 28.8c-3.3 3.3-6.1 6.1-12.5 6.1l4.4-63.1 114.9-103.8c5-4.4-1.1-6.9-7.7-2.5l-142 89.4-61.2-19.1c-13.3-4.2-13.6-13.3 2.8-19.7l239.1-92.2c11.1-4 20.8 2.7 17.2 19.5z"></path>
  </symbol>

  <symbol id="github" viewBox="0 0 496 512">
    <path d="M165.9 397.4c0 2-2.3 3.6-5.2 3.6-3.3.3-5.6-1.3-5.6-3.6 0-2 2.3-3.6 5.2-3.6 3-.3 5.6 1.3 5.6 3.6zm-31.1-4.5c-.7 2 1.3 4.3 4.3 4.9 2.6 1 5.6 0 6.2-2s-1.3-4.3-4.3-5.2c-2.6-.7-5.5.3-6.2 2.3zm44.2-1.7c-2.9.7-4.9 2.6-4.6 4.9.3 2 2.9 3.3 5.9 2.6 2.9-.7 4.9-2.6 4.6-4.6-.3-1.9-3-3.2-5.9-2.9zM244.8 8C106.1 8 0 113.3 0 252c0 110.9 69.8 205.8 169.5 239.2 12.8 2.3 17.3-5.6 17.3-12.1 0-6.2-.3-40.4-.3-61.4 0 0-70 15-84.7-29.8 0 0-11.4-29.1-27.8-36.6 0 0-22.9-15.7 1.6-15.4 0 0 24.9 2 38.6 25.8 21.9 38.6 58.6 27.5 72.9 20.9 2.3-16 8.8-27.1 16-33.7-55.9-6.2-112.3-14.3-112.3-110.5 0-27.5 7.6-41.3 23.6-58.9-2.6-6.5-11.1-33.3 2.6-67.9 20.9-6.5 69 27 69 27 20-5.6 41.5-8.5 62.8-8.5s42.8 2.9 62.8 8.5c0 0 48.1-33.6 69-27 13.7 34.7 5.2 61.4 2.6 67.9 16 17.7 25.8 31.5 25.8 58.9 0 96.5-58.9 104.2-114.8 110.5 9.2 7.9 17 22.9 17 46.4 0 33.7-.3 75.4-.3 83.6 0 6.5 4.6 14.4 17.3 12.1C428.2 457.8 496 362.9 496 252 496 113.3 383.5 8 244.8 8zM97.2 352.9c-1.3 1-1 3.3.7 5.2 1.6 1.6 3.9 2.3 5.2 1 1.3-1 1-3.3-.7-5.2-1.6-1.6-3.9-2.3-5.2-1zm-10.8-8.1c-.7 1.3.3 2.9 2.3 3.9 1.6 1 3.6.7 4.3-.7.7-1.3-.3-2.9-2.3-3.9-2-.6-3.6-.3-4.3.7zm32.4 35.6c-1.6 1.3-1 4.3 1.3 6.2 2.3 2.3 5.2 2.6 6.5 1 1.3-1.3.7-4.3-1.3-6.2-2.2-2.3-5.2-2.6-6.5-1zm-11.4-14.7c-1.6 1-1.6 3.6 0 5.9 1.6 2.3 4.3 3.3 5.6 2.3 1.6-1.3 1.6-3.9 0-6.2-1.4-2.3-4-3.3-5.6-2z"></path>
  </symbol>

  <symbol id="linkedin" viewBox="0 0 448 512">
    <path d="M100.28 448H7.4V148.9h92.88zM53.79 108.1C24.09 108.1 0 83.5 0 53.8a53.79 53.79 0 0 1 107.58 0c0 29.7-24.1 54.3-53.79 54.3zM447.9 448h-92.68V302.4c0-34.7-.7-79.2-48.29-79.2-48.29 0-55.69 37.7-55.69 76.7V448h-92.78V148.9h89.08v40.8h1.3c12.4-23.5 42.69-48.3 87.88-48.3 94 0 111.28 61.9 111.28 142.3V448z"></path>
  </symbol>

  <symbol id="html" viewBox="0 0 128 128">
    <path fill="#E44D26" d="M19.037 113.876L9.032 1.661h109.936l-10.016 112.198-45.019 12.48z"/><path fill="#F16529" d="M64 116.8l36.378-10.086 8.559-95.878H64z"/><path fill="#EBEBEB" d="M64 52.455H45.788L44.53 38.361H64V24.599H29.489l.33 3.692 3.382 37.927H64zm0 35.743l-.061.017-15.327-4.14-.979-10.975H33.816l1.928 21.609 28.193 7.826.063-.017z"/><path fill="#fff" d="M63.952 52.455v13.763h16.947l-1.597 17.849-15.35 4.143v14.319l28.215-7.82.207-2.325 3.234-36.233.335-3.696h-3.708zm0-27.856v13.762h33.244l.276-3.092.628-6.978.329-3.692z"/>
  </symbol>

  <symbol id="css" viewBox="0 0 128 128">
    <path fill="#1572B6" d="M19.67 26l8.069 90.493 36.206 10.05 36.307-10.063L108.33 26H19.67zm69.21 50.488L86.53 98.38l.009 1.875L64 106.55v.001l-.018.015-22.719-6.225L39.726 83h11.141l.79 8.766 12.347 3.295-.004.015v-.032l12.394-3.495L77.702 77H51.795l-.222-2.355-.506-5.647L50.802 66h27.886l1.014-11H37.229l-.223-2.589-.506-6.03L36.235 43h55.597l-.267 3.334-2.685 30.154M89 14.374L81.851 6H89V1H73v4.363L81.39 13H73v5h16zm-19 0L63.193 6H70V1H55v4.363L62.733 13H55v5h15zM52 13h-8V6h8V1H38v17h14z"/>
  </symbol>

  <symbol id="javascript" viewBox="0 0 128 128">
    <path fill="#F0DB4F" d="M1.408 1.408h125.184v125.185H1.408z"/><path fill="#323330" d="M116.347 96.736c-.917-5.711-4.641-10.508-15.672-14.981-3.832-1.761-8.104-3.022-9.377-5.926-.452-1.69-.512-2.642-.226-3.665.821-3.32 4.784-4.355 7.925-3.403 2.023.678 3.938 2.237 5.093 4.724 5.402-3.498 5.391-3.475 9.163-5.879-1.381-2.141-2.118-3.129-3.022-4.045-3.249-3.629-7.676-5.498-14.756-5.355l-3.688.477c-3.534.893-6.902 2.748-8.877 5.235-5.926 6.724-4.236 18.492 2.975 23.335 7.104 5.332 17.54 6.545 18.873 11.531 1.297 6.104-4.486 8.08-10.234 7.378-4.236-.881-6.592-3.034-9.139-6.949-4.688 2.713-4.688 2.713-9.508 5.485 1.143 2.499 2.344 3.63 4.26 5.795 9.068 9.198 31.76 8.746 35.83-5.176.165-.478 1.261-3.666.38-8.581zM69.462 58.943H57.753l-.048 30.272c0 6.438.333 12.34-.714 14.149-1.713 3.558-6.152 3.117-8.175 2.427-2.059-1.012-3.106-2.451-4.319-4.485-.333-.584-.583-1.036-.667-1.071l-9.52 5.83c1.583 3.249 3.915 6.069 6.902 7.901 4.462 2.678 10.459 3.499 16.731 2.059 4.082-1.189 7.604-3.652 9.448-7.401 2.666-4.915 2.094-10.864 2.07-17.444.06-10.735.001-21.468.001-32.237z"/>
  </symbol>

  <symbol id="webpack" viewBox="0 0 128 128">
    <path fill="#8ed6fb" d="M30.13 72.62l-12.27 6.94v-5.41l7.65-4.21 4.63 2.67zm.84-.76V57.34l-4.49 2.59v9.33l4.52 2.6zm-26.46.76l12.27 6.94v-5.41l-7.65-4.2zm-.84-.76V57.34l4.49 2.59v9.33zM4.2 56.4l12.59-7.12v5.22l-8.07 4.44h-.06zm26.25 0l-12.59-7.12v5.22l8.06 4.43.08.07 4.46-2.57z"/><path fill="#1c78c0" d="M16.78 72.92l-7.54-4.15v-8.22l7.55 4.36zm1.08 0l7.55-4.15v-8.22l-7.55 4.36zM9.75 59.6l7.57-4.16 7.58 4.16-7.58 4.4-7.57-4.4zM48.61 70h3.32l3.38-11.27h-3.23l-2 8-2.14-8h-2.8l-2.16 8-2-8h-3.21L41.13 70h3.32l2.09-7.22zm6.87-5.6a5.62 5.62 0 005.93 5.88 5.35 5.35 0 004.74-2.48l-2-1.49a3.29 3.29 0 01-2.74 1.38 2.74 2.74 0 01-2.93-2.59h7.94v-.65c0-3.68-2-6-5.47-6-3.21 0-5.52 2.54-5.52 5.95zm3.13-1.23a2.39 2.39 0 012.39-2.3 2.3 2.3 0 012.41 2.28zm9 6.83h2.8v-1.18a4.39 4.39 0 003.34 1.44c3.23 0 5.52-2.43 5.52-5.9s-2.11-5.92-5.35-5.92a4.24 4.24 0 00-3.34 1.46v-5.5h-3V70zm2.89-5.6c0-2.11 1.25-3.32 2.89-3.32s2.89 1.36 2.89 3.32-1.21 3.25-2.89 3.25a3 3 0 01-2.89-3.25zm9.92 9.6h3v-5.2a4.3 4.3 0 003.34 1.44c3.23 0 5.35-2.43 5.35-5.92s-2.28-5.9-5.52-5.9a4.32 4.32 0 00-3.34 1.46v-1.17h-2.8V74zm2.89-9.7a3 3 0 012.89-3.25c1.68 0 2.89 1.25 2.89 3.25s-1.16 3.32-2.89 3.32-2.89-1.21-2.89-3.32zm9.31 2.18c0 2.37 1.94 3.77 4.22 3.77a3.52 3.52 0 002.74-1l.19.73h2.63v-7.13c0-2.52-1.08-4.42-4.7-4.42a8.41 8.41 0 00-4.44 1.34l1.12 2a6.65 6.65 0 013-.8c1.32 0 2 .67 2 1.66v.73a4.57 4.57 0 00-2.38-.59c-2.63 0-4.38 1.5-4.38 3.72zm3-.09c0-.93.8-1.57 1.94-1.57s2 .58 2 1.57-.88 1.61-2 1.61-2-.62-2-1.55zm14 1.23a3.29 3.29 0 01-.1-6.57 3.83 3.83 0 012.63 1.08l.84-2.5a5.74 5.74 0 00-3.56-1.21 5.81 5.81 0 00-6 5.95 5.73 5.73 0 006 5.88 5.67 5.67 0 003.57-1.19l-.8-2.43a4.12 4.12 0 01-2.55 1zm4.47 2.38h3v-5.83l3.75 5.83h3.49l-4.27-6.17 4-5.11h-3.34l-3.62 4.74V54.4h-3V70z"/>
  </symbol>

  <symbol id="trello" viewBox="0 0 128 128">
    <path fill-rule="evenodd" clip-rule="evenodd" fill="#23719F" d="M82.128 75.202c-.527.386-.902.691-1.306.95-1.677 1.082-3.337 2.193-5.055 3.206-1.088.642-2.315.587-3.476.183-1.125-.39-2.245-.83-3.296-1.384-1.685-.889-2.219-2.574-2.742-4.259-.877-2.823.31-5.239 1.434-7.674.208-.446.492-.856.724-1.293.331-.625.145-.952-.571-.908a3.12 3.12 0 00-1.193.318c-3.145 1.599-5.882 3.702-7.973 6.578-1.438 1.981-2.322 4.208-2.911 6.575-.358 1.439-1.427 2.205-2.561 1.954-1.596-.354-2.731-2.725-2-4.18.116-.232.219-.479.383-.676 1.819-2.187 2.457-4.892 3.286-7.509.485-1.533.962-3.071 1.377-4.624.202-.757.45-1.529.05-2.343-.246-.505.162-.974.572-1.02.929-.105 1.948-.244 2.802.03.938.302 1.016 1.424 1.174 2.305.094.523.018 1.077.018 1.796.377-.173.647-.274.896-.416 1.419-.808 2.798-1.692 4.258-2.416 1.392-.69 2.816-.316 4.124.329.66.326 1.001.289 1.512-.283 1.135-1.273 2.316-2.527 3.619-3.622 1.081-.907 2.489-1.176 3.897-1.075.923.065 1.85.236 2.747.464 1.048.269 1.711 1.211 1.808 2.274.194 2.162-.669 4.003-1.904 5.629-2.938 3.871-6.267 7.355-10.481 9.884-.582.35-.627.767-.358 1.309.412.824 1.406 1.178 2.318.897 2.576-.792 4.57-2.505 6.628-4.125 1.099-.865 2.272-1.655 3.259-2.633.555-.549.821-1.4 1.18-2.135 1.367-2.796 2.641-5.641 4.093-8.392 1.525-2.894 3.232-5.691 4.824-8.55.439-.79.76-1.647 1.118-2.48.523-1.211 1.342-1.959 2.754-1.832.258.023.521-.005.782-.004 1.836.003 2.837 1.586 1.935 3.204-.808 1.448-1.746 2.823-2.657 4.211-2.662 4.058-5.409 8.069-7.482 12.473a64.288 64.288 0 00-2.628 6.404c-.364 1.053-.363 2.247-.427 3.383-.04.743.481.99 1.07.495.971-.817 1.847-1.744 2.799-2.583.813-.716 1.727-1.319 2.498-2.073.399-.391.659-.971.855-1.511 1.427-3.914 3.256-7.635 5.262-11.277 1.441-2.615 2.935-5.203 4.372-7.822.68-1.24 1.245-2.544 1.937-3.779.43-.767 1.113-1.219 2.066-1.119.31.033.628.026.938-.009 2.12-.243 2.784 1.895 2.021 3.213-.637 1.098-1.329 2.164-2.023 3.226-3.086 4.715-6.307 9.354-8.634 14.511-.915 2.026-1.659 4.138-2.356 6.25-.252.765-.181 1.648-.18 2.478 0 .75.471.974 1.067.473.952-.8 1.828-1.688 2.753-2.524l2.217-1.933c.183-.164.397-.389.428-.61.58-4.051 2.565-7.411 5.137-10.476.832-.993 1.665-2.004 2.62-2.872 1.924-1.746 4.42-1.339 5.867.04.408.389.637.991.875 1.527.496 1.105.856 1.359 2.085 1.355 1.455-.005 2.912-.058 4.362.021.569.031 1.168.284 1.673.575.637.369.579 1.02-.076 1.319-1.85.844-3.775 1.436-5.825 1.485-.682.017-.977.247-1.153.953-1.116 4.477-2.672 8.759-6.054 12.097-.708.699-1.522 1.36-2.408 1.79-1.674.812-3.134-.028-4.496-.948a8.128 8.128 0 01-1.578-1.376c-.396-.455-.617-.411-.977-.006-1.038 1.171-2.136 2.28-3.611 2.908-.89.378-1.756.607-2.778.302-1.534-.46-2.922-1.085-3.915-2.38-.37-.485-.621-.435-1.056-.055-.817.713-1.646 1.445-2.576 1.988-1.901 1.109-3.726.481-5.438-.546-1.296-.773-2.212-1.869-2.319-3.63zm25.52-2.126c.081.363.125.897.324 1.365.172.4.478.962.803 1.021.309.057.832-.37 1.066-.716a118.356 118.356 0 003.092-4.85c1.313-2.169 1.977-4.561 2.212-7.069a2.789 2.789 0 00-.238-1.358c-.478-1.043-.962-1.112-1.594-.171-1.286 1.91-2.56 3.834-3.71 5.83a15.071 15.071 0 00-1.955 5.948zM79.195 59.895c.053-.576-.21-.754-.705-.622-.144.038-.278.141-.396.238-2.979 2.445-5.281 5.408-6.813 8.952-.068.157.023.385.04.58.187-.042.429-.022.555-.134.682-.601 1.338-1.229 1.996-1.854 2.043-1.941 3.866-4.051 5.107-6.611.09-.187.152-.386.216-.549zm-31.459-4.052c-.509-.054-.878-.103-1.249-.13-1.084-.08-2.178-.091-3.251-.246-.868-.126-1.24-.705-1.24-1.611l.007-.468c.045-1.591.627-1.829 2.207-1.601 1.623.234 3.319.165 4.964.012 2.164-.2 4.306-.647 6.464-.92 1.311-.165 2.636-.226 3.955-.294 1.727-.09 3.111.739 4.323 1.828.302.27.415.946.343 1.393-.139.873-2.167 1.779-2.987.96-.595-.593-1.377-.789-2.237-.687-1.624.194-3.254.35-4.88.536-.414.047-.572.263-.719.722-.28.876-.787 1.684-1.229 2.504-1.908 3.55-3.597 7.19-4.639 11.096a227.55 227.55 0 00-1.783 7.242c-.121.522-.097 1.091-.069 1.634.109 2.07-1.022 2.381-2.707 1.834-.491-.158-.949-.423-1.421-.64-.545-.254-.905-.688-.837-1.279.16-1.386.281-2.792.627-4.135a101.72 101.72 0 012.114-7.157c.733-2.188 1.606-4.331 2.461-6.478.524-1.319 1.127-2.608 1.783-4.115z"/><path fill="#23719F" d="M36 52.028A4.029 4.029 0 0031.971 48H7.029A4.029 4.029 0 003 52.028v24.943A4.03 4.03 0 007.029 81H31.97A4.03 4.03 0 0036 76.972V52.028zM19 73.003C19 73.952 16.886 75 15.844 75H8.636C7.595 75 7 73.952 7 73.003V52.745c0-.949.595-.745 1.636-.745h7.208c1.042 0 3.156-.204 3.156.745v20.258zm14-17.486V64c0 1.011-1.282 2-2.295 2h-7.27C22.422 66 22 65.011 22 63.999V52.797c0-1.012.422-.797 1.436-.797h7.27c1.012 0 2.294-.215 2.294.797v2.72z"/>
  </symbol>

  <symbol id="sass" viewBox="0 0 128 128">
    <path fill-rule="evenodd" clip-rule="evenodd" fill="#CB6699" d="M1.219 56.156c0 .703.207 1.167.323 1.618.756 2.933 2.381 5.45 4.309 7.746 2.746 3.272 6.109 5.906 9.554 8.383 2.988 2.148 6.037 4.248 9.037 6.38.515.366 1.002.787 1.561 1.236-.481.26-.881.489-1.297.7-3.959 2.008-7.768 4.259-11.279 6.986-2.116 1.644-4.162 3.391-5.607 5.674-2.325 3.672-3.148 7.584-1.415 11.761.506 1.22 1.278 2.274 2.367 3.053.353.252.749.502 1.162.6 1.058.249 2.136.412 3.207.609l3.033-.002c3.354-.299 6.407-1.448 9.166-3.352 4.312-2.976 7.217-6.966 8.466-12.087.908-3.722.945-7.448-.125-11.153a11.696 11.696 0 00-.354-1.014c-.13-.333-.283-.657-.463-1.072l6.876-3.954.103.088c-.125.409-.258.817-.371 1.23-.817 2.984-1.36 6.02-1.165 9.117.208 3.3 1.129 6.389 3.061 9.146 1.562 2.23 5.284 2.313 6.944.075.589-.795 1.16-1.626 1.589-2.513 1.121-2.315 2.159-4.671 3.23-7.011l.187-.428c-.077 1.108-.167 2.081-.208 3.055-.064 1.521.025 3.033.545 4.48.445 1.238 1.202 2.163 2.62 2.326.97.111 1.743-.333 2.456-.896a10.384 10.384 0 002.691-3.199c1.901-3.491 3.853-6.961 5.576-10.54 1.864-3.871 3.494-7.855 5.225-11.792l.286-.698c.409 1.607.694 3.181 1.219 4.671.61 1.729 1.365 3.417 2.187 5.058.389.775.344 1.278-.195 1.928-2.256 2.72-4.473 5.473-6.692 8.223-.491.607-.98 1.225-1.389 1.888a3.701 3.701 0 00-.48 1.364 1.737 1.737 0 001.383 1.971 9.661 9.661 0 002.708.193c3.097-.228 5.909-1.315 8.395-3.157 3.221-2.386 4.255-5.642 3.475-9.501-.211-1.047-.584-2.065-.947-3.074-.163-.455-.174-.774.123-1.198 2.575-3.677 4.775-7.578 6.821-11.569.081-.157.164-.314.306-.482.663 3.45 1.661 6.775 3.449 9.792-.912.879-1.815 1.676-2.632 2.554-1.799 1.934-3.359 4.034-4.173 6.595-.35 1.104-.619 2.226-.463 3.405.242 1.831 1.742 3.021 3.543 2.604 3.854-.892 7.181-2.708 9.612-5.925 1.636-2.166 1.785-4.582 1.1-7.113-.188-.688-.411-1.365-.651-2.154.951-.295 1.878-.649 2.837-.868 4.979-1.136 9.904-.938 14.702.86 2.801 1.05 5.064 2.807 6.406 5.571 1.639 3.379.733 6.585-2.452 8.721-.297.199-.637.356-.883.605a.869.869 0 00-.205.67c.021.123.346.277.533.275 1.047-.008 1.896-.557 2.711-1.121 2.042-1.413 3.532-3.314 3.853-5.817l.063-.188-.077-1.63c-.031-.094.023-.187.016-.258-.434-3.645-2.381-6.472-5.213-8.688-3.28-2.565-7.153-3.621-11.249-3.788a25.401 25.401 0 00-9.765 1.503c-.897.325-1.786.71-2.688 1.073-.121-.219-.251-.429-.358-.646-.926-1.896-2.048-3.708-2.296-5.882-.176-1.544-.392-3.086-.025-4.613.353-1.469.813-2.913 1.246-4.362.223-.746.066-1.164-.646-1.5a2.854 2.854 0 00-.786-.258c-1.75-.254-3.476-.109-5.171.384-.6.175-1.036.511-1.169 1.175-.076.381-.231.746-.339 1.122-.443 1.563-.757 3.156-1.473 4.645-1.794 3.735-3.842 7.329-5.938 10.897-.227.385-.466.763-.752 1.23-.736-1.54-1.521-2.922-1.759-4.542-.269-1.832-.481-3.661-.025-5.479.339-1.356.782-2.687 1.19-4.025.193-.636.104-.97-.472-1.305-.291-.169-.62-.319-.948-.368a11.643 11.643 0 00-5.354.438c-.543.176-.828.527-.994 1.087-.488 1.652-.904 3.344-1.589 4.915-2.774 6.36-5.628 12.687-8.479 19.013-.595 1.321-1.292 2.596-1.963 3.882-.17.326-.418.613-.63.919-.17-.201-.236-.339-.235-.477.005-.813-.092-1.65.063-2.436a172.189 172.189 0 011.578-7.099c.47-1.946 1.017-3.874 1.538-5.807.175-.647.178-1.252-.287-1.796-.781-.911-2.413-1.111-3.381-.409l-.428.242.083-.69c.204-1.479.245-2.953-.161-4.41-.506-1.816-1.802-2.861-3.686-2.803-.878.027-1.8.177-2.613.497-3.419 1.34-6.048 3.713-8.286 6.568a2.592 2.592 0 01-.757.654c-2.893 1.604-5.795 3.188-8.696 4.778l-3.229 1.769c-.866-.826-1.653-1.683-2.546-2.41-2.727-2.224-5.498-4.393-8.244-6.592-2.434-1.949-4.792-3.979-6.596-6.56-1.342-1.92-2.207-4.021-2.29-6.395-.105-3.025.753-5.789 2.293-8.362 1.97-3.292 4.657-5.934 7.611-8.327 3.125-2.53 6.505-4.678 10.008-6.639 4.901-2.743 9.942-5.171 15.347-6.774 5.542-1.644 11.165-2.585 16.965-1.929 2.28.258 4.494.78 6.527 1.895 1.557.853 2.834 1.97 3.428 3.716.586 1.718.568 3.459.162 5.204-.825 3.534-2.76 6.447-5.195 9.05-3.994 4.267-8.866 7.172-14.351 9.091a39.478 39.478 0 01-9.765 2.083c-2.729.229-5.401-.013-7.985-.962-1.711-.629-3.201-1.591-4.399-2.987-.214-.25-.488-.521-.887-.287-.391.23-.46.602-.329.979.219.626.421 1.278.762 1.838.857 1.405 2.107 2.424 3.483 3.298 2.643 1.681 5.597 2.246 8.66 2.377 4.648.201 9.183-.493 13.654-1.74 6.383-1.78 11.933-4.924 16.384-9.884 3.706-4.13 6.353-8.791 6.92-14.419.277-2.747-.018-5.438-1.304-7.944-1.395-2.715-3.613-4.734-6.265-6.125C68.756 18.179 64.588 17 60.286 17h-4.31c-5.21 0-10.247 1.493-15.143 3.274-3.706 1.349-7.34 2.941-10.868 4.703-7.683 3.839-14.838 8.468-20.715 14.833-2.928 3.171-5.407 6.67-6.833 10.79a40.494 40.494 0 00-1.111 3.746m27.839 36.013c-.333 4.459-2.354 8.074-5.657 11.002-1.858 1.646-3.989 2.818-6.471 3.23-.9.149-1.821.185-2.694-.188-1.245-.532-1.524-1.637-1.548-2.814-.037-1.876.62-3.572 1.521-5.186 1.176-2.104 2.9-3.708 4.741-5.206 2.9-2.361 6.046-4.359 9.268-6.245l.243-.1c.498 1.84.735 3.657.597 5.507zM54.303 70.98c-.235 1.424-.529 2.849-.945 4.229-1.438 4.777-3.285 9.406-5.282 13.973-.369.845-.906 1.616-1.373 2.417a1.689 1.689 0 01-.283.334c-.578.571-1.126.541-1.418-.206-.34-.868-.549-1.797-.729-2.716-.121-.617-.092-1.265-.13-1.897.039-4.494 1.41-8.578 3.736-12.38.959-1.568 2.003-3.062 3.598-4.054a6.27 6.27 0 011.595-.706c.85-.239 1.372.154 1.231 1.006zm17.164 21.868l6.169-7.203c.257 2.675-4.29 8.015-6.169 7.203zm19.703-4.847c-.436.25-.911.43-1.358.661-.409.212-.544-.002-.556-.354a2.385 2.385 0 01.093-.721c.833-2.938 2.366-5.446 4.647-7.486l.16-.082c1.085 3.035-.169 6.368-2.986 7.982z"/>
  </symbol>



  <symbol id="photoshop" viewBox="0 0 128 128">
    <path fill-rule="evenodd" clip-rule="evenodd" fill="#80B5E2" d="M126.216.727C89.993.716 53.932.717 17.708.717 12.527.717 7.257.713 2.076.728 1.748.729 1 .881 1 .964V127h126V.964c0-.083-.414-.237-.784-.237zM113.48 114.666c-32.641-.038-65.271-.03-97.912-.03-1.576 0-1.569-.003-1.569-1.627V15.212C14 13.605 13.984 14 15.577 14h97.798c1.638 0 1.625-.396 1.625 1.291v48.837c0 16.32-.007 32.64.036 48.959.004 1.243-.289 1.58-1.556 1.579zM56.82 39.644c-6.668-1.563-13.38-.792-20.085-.107-1.423.146-1.695.755-1.691 2.018C35.087 56.762 35 71.969 35 87.176V88h9V70.139c5 .375 9.576.286 14.049-1.31 7.169-2.558 10.752-8.111 10.365-16.219-.313-6.548-4.426-11.286-11.594-12.966zm-1.953 22.344c-3.194 1.557-6.59 1.52-10.005 1.058-.266-.036-.675-.511-.677-.784-.04-5.331-.03-10.661-.03-16.138 3.131-.488 6.1-.726 9.062.018 3.673.923 5.804 3.319 6.201 6.917.436 3.954-1.247 7.319-4.551 8.929zm33.301 7.106c-1.469-.805-3.08-1.347-4.606-2.053-1.41-.653-2.833-1.296-4.174-2.076-.935-.543-1.36-1.492-1.36-2.611 0-1.892 1.294-3.417 3.504-3.598 1.649-.135 3.361.035 4.994.34 1.376.256 2.681.899 4.082 1.395l1.767-6.269c-3.345-1.624-6.749-2.235-10.285-2.11-3.006.105-5.814.871-8.352 2.599-4.743 3.229-7.057 11.807.051 16.416 1.805 1.171 3.893 1.905 5.851 2.841 1.218.583 2.489 1.079 3.641 1.772 1.452.874 1.946 2.297 1.694 3.94-.247 1.615-1.33 2.638-2.836 2.874-1.68.264-3.466.435-5.118.144-2.339-.411-4.599-1.281-6.974-1.979-.426 1.59-.831 3.349-1.384 5.06-.303.938-.125 1.401.795 1.768 5.617 2.231 11.334 2.69 17.082.717 4.296-1.475 6.915-4.524 7.256-9.169.332-4.527-1.708-7.851-5.628-10.001z"/>
  </symbol>

  <symbol id="nodejs" viewBox="0 0 128 128">
    <path fill="#83CD29" d="M114.325 80.749c-.29 0-.578-.076-.832-.224l-2.65-1.568c-.396-.221-.203-.3-.072-.345.528-.184.635-.227 1.198-.545.059-.033.136-.021.197.015l2.035 1.209a.261.261 0 00.246 0l7.937-4.581a.248.248 0 00.122-.215v-9.16a.256.256 0 00-.123-.219l-7.934-4.577a.254.254 0 00-.245 0l-7.933 4.578a.259.259 0 00-.125.218v9.16c0 .088.049.171.125.212l2.174 1.257c1.18.589 1.903-.105 1.903-.803v-9.045c0-.127.103-.228.23-.228h1.007c.125 0 .229.101.229.228v9.045c0 1.574-.857 2.477-2.35 2.477-.459 0-.82 0-1.828-.496l-2.081-1.198a1.676 1.676 0 01-.832-1.448v-9.16c0-.595.317-1.15.832-1.446l7.937-4.587a1.743 1.743 0 011.667 0l7.937 4.587c.514.297.833.852.833 1.446v9.16a1.68 1.68 0 01-.833 1.448l-7.937 4.582a1.651 1.651 0 01-.834.223m2.453-6.311c-3.475 0-4.202-1.595-4.202-2.932a.23.23 0 01.23-.229h1.026a.23.23 0 01.228.194c.154 1.045.617 1.572 2.718 1.572 1.671 0 2.383-.378 2.383-1.266 0-.512-.202-.891-2.8-1.146-2.172-.215-3.515-.694-3.515-2.433 0-1.601 1.35-2.557 3.612-2.557 2.543 0 3.801.883 3.96 2.777a.235.235 0 01-.06.176.236.236 0 01-.168.073h-1.031a.228.228 0 01-.223-.179c-.248-1.1-.848-1.451-2.479-1.451-1.825 0-2.037.637-2.037 1.112 0 .577.25.745 2.715 1.071 2.439.323 3.598.779 3.598 2.494.001 1.733-1.441 2.724-3.955 2.724"/><path fill="#404137" d="M97.982 68.43c.313-.183.506-.517.506-.88v-2.354c0-.362-.192-.696-.506-.879l-8.364-4.856a1.017 1.017 0 00-1.019-.002l-8.416 4.859a1.018 1.018 0 00-.508.88v9.716c0 .365.196.703.514.884l8.363 4.765c.308.177.686.178.997.006l5.058-2.812a.508.508 0 00.006-.885l-8.468-4.86a.507.507 0 01-.256-.44v-3.046c0-.182.097-.349.254-.439l2.637-1.52a.505.505 0 01.507 0l2.637 1.52a.507.507 0 01.255.439v2.396a.507.507 0 00.764.44l5.039-2.932"/><path fill="#83CD29" d="M88.984 67.974a.2.2 0 01.195 0l1.615.933c.06.035.097.1.097.169v1.865c0 .07-.037.134-.097.169l-1.615.932a.194.194 0 01-.195 0l-1.614-.932a.194.194 0 01-.098-.169v-1.865c0-.069.037-.134.098-.169l1.614-.933"/><path fill="#404137" d="M67.083 71.854c0 .09-.048.174-.127.22l-2.89 1.666a.251.251 0 01-.254 0l-2.89-1.666a.255.255 0 01-.127-.22v-3.338c0-.09.049-.175.127-.221l2.89-1.668a.248.248 0 01.255 0l2.891 1.668a.258.258 0 01.126.221v3.338zm.781-24.716a.511.511 0 00-.756.444v12.915a.359.359 0 01-.177.308.359.359 0 01-.356 0l-2.108-1.215a1.017 1.017 0 00-1.015 0l-8.418 4.858a1.018 1.018 0 00-.509.881v9.719c0 .363.194.698.508.881l8.418 4.861c.314.182.702.182 1.017 0l8.42-4.861a1.02 1.02 0 00.508-.881V50.821c0-.368-.2-.708-.521-.888l-5.011-2.795"/><path fill="#83CD29" d="M38.238 59.407a1.014 1.014 0 011.016 0l8.418 4.857c.314.182.508.518.508.881v9.722c0 .363-.194.699-.508.881l-8.417 4.861a1.02 1.02 0 01-1.017 0l-8.415-4.861a1.02 1.02 0 01-.508-.881v-9.723c0-.362.194-.698.508-.88l8.415-4.857"/><path fill="#404137" d="M22.93 65.064c0-.366-.192-.702-.508-.883l-8.415-4.843a.99.99 0 00-.464-.133h-.087a.993.993 0 00-.464.133l-8.416 4.843a1.02 1.02 0 00-.509.883l.018 13.04c0 .182.095.351.254.439a.487.487 0 00.505 0l5-2.864c.316-.188.509-.519.509-.882v-6.092c0-.364.192-.699.507-.881l2.13-1.226a.994.994 0 01.508-.137c.174 0 .352.044.507.137l2.128 1.226c.315.182.509.517.509.881v6.092c0 .363.195.696.509.882l5 2.864a.508.508 0 00.76-.439l.019-13.04"/>
  </symbol>

  <symbol id="less" viewBox="0 0 128 128">
    <path fill-rule="evenodd" clip-rule="evenodd" fill="#2A4D80" d="M122.301 58.635c-.6-1.299-.89-2.836-.952-4.283-.154-3.561-.023-7.135-.184-10.696-.144-3.189-1.282-6.063-4.344-7.707-2.696-1.447-5.821-1.591-8.821-1.625v5.691c1 .034.754.065.998.078 4.029.198 5.379 1.476 5.43 5.473.038 2.972.012 5.946.06 8.917.059 3.605.597 7.046 3.894 9.322.056.039.051.182.083.348-1.678 1.192-3.006 2.727-3.392 4.822a34.53 34.53 0 00-.54 5.153c-.096 3.118.003 6.243-.086 9.361-.07 2.442-1.227 3.588-3.604 4.132-.895.206-1.843.279-2.843.406v5.677c2-.12 3.017-.199 4.387-.347 5.156-.558 8.059-3.241 8.654-8.243.186-1.568.165-3.166.2-4.75.066-2.969.032-5.952.298-8.903.271-3.011 2.461-4.675 5.461-4.509v-5.951c-2 .358-3.843-.507-4.699-2.366zM28.314 70.768C28.313 59.219 28 47.67 28 36.122v-1.817c-3 0-6.226-.029-9.391.014-1.285.017-2.418.127-3.692.301-4.877.664-7.228 2.953-8.092 7.812-.25 1.402-.2 2.859-.221 4.293-.039 2.726.039 5.453-.005 8.178-.055 3.432-1.672 6.092-5.172 6.294-.124.007.573.15-.427.236v5.305c4 .628 5.273 2.243 5.539 5.959.042.592.053 1.189.059 1.784.034 3.32-.004 6.645.146 9.959.141 3.093.828 5.857 3.751 7.48C13.225 93.436 17 93.559 19 93.638v-5.664c0-.048-.21-.092-.405-.104-4.339-.265-5.317-1.443-5.343-5.785-.017-2.875.106-5.75.06-8.625-.058-3.612-.586-7.038-3.856-9.324-.05-.035-.001-.183-.017-.383 2.199-1.39 3.368-3.516 3.686-6.094.176-1.422.235-2.864.26-4.299.05-2.973-.003-5.949.078-8.92.057-2.088 1.39-3.61 3.091-3.952 1.612-.325 2.446-.315 5.446-.466v2.056c0 10.31-.367 20.619-.313 30.929.019 3.531.41 7.012 4.195 8.537 2.058.829 4.263 1.084 6.627 1.642.395-2.312.524-4.23.847-6.128-4.357-1.25-5.042-1.898-5.042-6.29zm26.674-19.893c-7.34-3.51-16.248-.441-19.666 6.921-2.574 5.544-2.482 11.25-.216 16.872 1.229 3.048 3.45 5.33 6.473 6.672 5.904 2.621 11.879 1.984 17.832.144.321-.1.731-.718.692-1.046-.203-1.661-.54-3.306-.841-5.021-1.417.357-2.601.722-3.811.949-3.197.601-6.401.6-9.512-.637-3.072-1.22-5.135-4.73-4.622-7.73h20.872c.255-3 .154-7.125-1.123-10.536-1.14-3.049-3.108-5.167-6.078-6.588zM54.944 63H41.228c.007-4 3.264-7.59 7.537-7.508 3.753.072 6.349 3.508 6.179 7.508zm56.108 12.279c.492-5.054-1.034-7.898-5.534-10.094-1.596-.779-3.29-1.356-4.916-2.078-1.217-.54-2.442-1.087-3.58-1.771-1.108-.665-1.572-1.769-1.408-3.062.161-1.277.982-2.119 2.168-2.359 1.437-.292 2.943-.542 4.388-.424 2.042.167 4.056.69 6.163 1.075l1.332-5.818c-2.851-.434-5.509-.995-8.195-1.207-2.987-.235-5.896.261-8.63 1.67-5.777 2.977-5.883 12.116-.574 15.116 1.586.896 3.283 1.596 4.933 2.38 1.737.827 3.537 1.546 5.199 2.504 1.262.727 1.713 1.996 1.375 3.475-.313 1.375-1.354 1.988-2.577 2.105-1.86.177-3.768.347-5.609.128-2.217-.264-4.387-.937-6.658-1.451l-1.158 5.79c5.333 2.002 10.61 2.33 15.938 1.149 4.459-.988 6.999-3.596 7.343-7.128zm-28.415-9.452c-1.959-1.039-4.066-1.797-6.088-2.723-1.255-.575-2.584-1.074-3.69-1.871-2.127-1.533-1.731-4.472.746-5.258 1.421-.452 3.028-.592 4.521-.48 2.034.153 4.041.679 6.162 1.063l1.258-5.546c-1.077-.293-2.052-.612-3.051-.822-3.971-.836-7.963-1.16-11.874.215-3.36 1.182-5.691 3.392-6.152 7.11-.516 4.152.861 7.43 4.696 9.402 1.535.79 3.18 1.363 4.747 2.095 1.564.73 3.161 1.427 4.614 2.343 1.111.7 1.549 1.885 1.236 3.255-.311 1.358-1.301 2.042-2.533 2.169-1.86.191-3.769.368-5.611.153-2.226-.26-4.403-.935-6.714-1.455-.341 1.613-.741 3.238-.99 4.885-.054.358.345 1.046.681 1.163 5.384 1.866 10.864 2.134 16.34.521 3.27-.962 5.557-3.051 6.018-6.623.523-4.055-.444-7.544-4.316-9.596z"/>
  </symbol>

  <symbol id="jira" viewBox="0 0 128 128">
  <defs><linearGradient id="jira-original-wordmark-a" gradientUnits="userSpaceOnUse" x1="22.034" y1="9.773" x2="17.118" y2="14.842" gradientTransform="translate(1.136 -13.247) scale(3.90869)"><stop offset=".176" stop-color="#0052cc"/><stop offset="1" stop-color="#2684ff"/></linearGradient><linearGradient id="jira-original-wordmark-b" gradientUnits="userSpaceOnUse" x1="16.641" y1="15.564" x2="10.957" y2="21.094" gradientTransform="translate(1.136 -13.247) scale(3.90869)"><stop offset=".176" stop-color="#0052cc"/><stop offset="1" stop-color="#2684ff"/></linearGradient></defs><path d="M106.691 2.387h-45.16c0 11.258 9.114 20.37 20.367 20.37h8.309v8.04c0 11.258 9.113 20.371 20.371 20.371V6.273a3.89 3.89 0 00-3.887-3.886zm0 0" fill="#2684ff"/><path d="M84.313 24.902h-45.16c0 11.258 9.109 20.368 20.367 20.368h8.308v8.042c0 11.258 9.113 20.372 20.371 20.372V28.789a3.89 3.89 0 00-3.886-3.887zm0 0" fill="url(#jira-original-wordmark-a)"/><path d="M61.934 47.414H16.77c0 11.258 9.113 20.371 20.37 20.371h8.31v8.043c0 11.254 9.112 20.367 20.37 20.367V51.301a3.89 3.89 0 00-3.886-3.887zm0 0" fill="url(#jira-original-wordmark-b)"/><path d="M46 101.242h3.434v16.98c0 4.481-2.043 7.606-6.786 7.606-1.78 0-3.175-.297-4.132-.633v-3.254c1.047.422 2.308.633 3.57.633 2.914 0 3.914-1.687 3.914-4.14zm0 0M55.742 99.93c1.348 0 2.305.804 2.305 2.238 0 1.394-.957 2.242-2.305 2.242-1.347 0-2.304-.805-2.304-2.242 0-1.39.957-2.238 2.304-2.238zm-1.695 7.14h3.305v18.59h-3.305zm0 0M65.527 125.66H62.31v-18.59h3.218v3.254c1.133-2.199 3.047-3.761 6.785-3.55v3.128c-4.218-.422-6.785.801-6.785 4.774zm0 0M87.758 122.32c-1.219 2.453-3.524 3.72-6.485 3.72-5.085 0-7.652-4.185-7.652-9.677 0-5.238 2.695-9.672 8.047-9.672 2.781 0 4.957 1.223 6.09 3.633v-3.254h3.305v18.59h-3.305zm-5.613.762c2.957 0 5.566-1.816 5.566-5.957v-1.477c0-4.14-2.39-5.957-5.219-5.957-3.695 0-5.61 2.364-5.61 6.672.044 4.48 1.872 6.719 5.263 6.719zm0 0" fill="#253858"/>
  </symbol>

  <symbol id="jquery" viewBox="0 0 128 128">
    <path fill="#0868AC" d="M27.758 20.421c-7.352 10.565-6.437 24.312-.82 35.54l.411.798.263.506.164.291.293.524c.174.307.353.612.536.919l.306.504c.203.326.41.65.622.973l.265.409c.293.437.592.872.901 1.301l.026.033.152.205c.267.368.542.732.821 1.093l.309.393c.249.313.502.623.759.934l.29.346c.345.406.698.812 1.057 1.208l.021.022.041.045c.351.383.71.758 1.075 1.133l.344.347c.282.284.569.563.858.841l.351.334c.387.364.777.722 1.176 1.07l.018.016.205.174c.351.305.708.605 1.068.902l.442.353c.294.235.591.468.89.696l.477.361c.33.243.663.482.999.717l.363.258.101.072c.318.22.645.431.97.642l.42.28c.5.315 1.007.628 1.519.93l.42.237c.377.217.756.431 1.14.639l.631.326.816.424.188.091.334.161c.427.204.858.405 1.293.599l.273.122c.498.218 1.001.427 1.508.628l.368.144c.469.182.945.359 1.423.527l.179.062c.524.184 1.054.353 1.587.52l.383.114c.542.164 1.079.358 1.638.462 35.553 6.483 45.88-21.364 45.88-21.364-8.674 11.3-24.069 14.28-38.656 10.962-.553-.125-1.089-.298-1.628-.456l-.406-.124a44.793 44.793 0 01-1.568-.51l-.215-.077a49.537 49.537 0 01-1.382-.513l-.388-.152c-.501-.198-1-.405-1.492-.62l-.298-.133a55.398 55.398 0 01-1.259-.585l-.364-.175c-.327-.159-.65-.328-.974-.495l-.649-.341c-.395-.21-.782-.43-1.167-.654l-.394-.219a58.203 58.203 0 01-1.52-.932l-.41-.273a40.515 40.515 0 01-1.081-.719l-.349-.245a54.203 54.203 0 01-1.022-.738l-.453-.343c-.31-.237-.618-.476-.922-.721l-.411-.33c-.388-.318-.771-.64-1.149-.969l-.126-.105a54.797 54.797 0 01-1.208-1.098l-.34-.328a33.158 33.158 0 01-.868-.851l-.34-.34c-.362-.37-.717-.745-1.065-1.126l-.053-.057a41.973 41.973 0 01-1.08-1.229l-.283-.336a44.66 44.66 0 01-.777-.961l-.285-.355a52.469 52.469 0 01-.898-1.195c-8.098-11.047-11.008-26.283-4.535-38.795m17.081-1.626c-5.316 7.65-5.028 17.893-.88 25.983a33.747 33.747 0 002.351 3.925c.796 1.143 1.68 2.501 2.737 3.418.383.422.784.834 1.193 1.238l.314.311c.397.385.801.764 1.218 1.132l.05.043.012.012c.462.405.939.794 1.423 1.178l.323.252c.486.372.981.738 1.489 1.087l.043.033.68.447.322.213c.363.233.73.459 1.104.676l.156.092c.322.185.648.367.975.545l.347.18.682.354.103.047c.469.23.941.453 1.424.663l.314.13c.386.163.775.323 1.167.473l.5.184c.356.132.712.253 1.072.373l.484.155c.511.158 1.017.359 1.549.448 27.45 4.547 33.787-16.588 33.787-16.588-5.712 8.228-16.775 12.153-28.58 9.089a34.726 34.726 0 01-1.555-.449l-.467-.151a29 29 0 01-1.087-.374l-.491-.183a38.673 38.673 0 01-1.171-.473l-.315-.133a32.78 32.78 0 01-1.432-.666l-.718-.365-.414-.213c-.306-.166-.61-.338-.909-.514l-.217-.123a30.75 30.75 0 01-1.1-.672l-.332-.221-.712-.472a37.364 37.364 0 01-1.484-1.085l-.334-.264c-5.167-4.079-9.263-9.655-11.21-15.977-2.041-6.557-1.601-13.917 1.935-19.891m14.847-.518c-3.134 4.612-3.442 10.341-1.267 15.435 2.293 5.407 6.992 9.648 12.477 11.66l.682.235.3.096c.323.102.644.22.978.282 15.157 2.929 19.268-7.777 20.362-9.354-3.601 5.185-9.653 6.43-17.079 4.627a18.837 18.837 0 01-1.796-.555 22.303 22.303 0 01-2.134-.886 22.19 22.19 0 01-3.741-2.282c-6.645-5.042-10.772-14.659-6.436-22.492"/><path fill="#131B28" d="M66.359 96.295h-4.226a.556.556 0 00-.517.417l-1.5 6.94-1.5 6.94a.554.554 0 01-.516.417h-2.991c-2.959 0-2.617-2.047-2.011-4.851l.018-.085.066-.354.012-.066.135-.72.145-.771.154-.785.682-3.332.683-3.332a.336.336 0 00-.341-.419h-4.337a.55.55 0 00-.514.418l-.933 4.424-.932 4.425-.002.006-.086.412c-1.074 4.903-.79 9.58 5.048 9.727l.17.003h9.163a.554.554 0 00.516-.417l1.976-9.289 1.976-9.29c.049-.23-.103-.417-.338-.418zm-45.256-.049h-4.64a.562.562 0 00-.521.416l-.44 1.942-.44 1.942c-.051.229.098.416.333.416h4.676a.556.556 0 00.518-.417l.425-1.941.425-1.941c.049-.229-.101-.417-.336-.417zm-1.346 6.044H15.08a.563.563 0 00-.521.416l-.657 2.91-.656 2.909-.183.834-.631 2.97-.63 2.971c-.049.229-.15.599-.225.821 0 0-.874 2.6-2.343 2.57l-.184-.004-1.271-.023h-.001a.558.558 0 00-.524.407l-.485 2.039-.484 2.038c-.055.228.093.416.326.42.833.01 2.699.031 3.828.031 3.669 0 5.604-2.033 6.843-7.883l1.451-6.714 1.361-6.297c.049-.227-.103-.415-.337-.415zm86.117-1.574l-.194-.801-.191-.82-.097-.414c-.38-1.477-1.495-2.328-3.917-2.328l-3.77-.004-3.472-.005h-3.907a.552.552 0 00-.515.417l-.173.816-.204.964-.057.271-1.759 8.24-1.67 7.822c-.05.23-.066.512-.038.626.028.115.479.209.713.209h3.524c.235 0 .532-.042.66-.094s.317-.513.364-.742l.626-3.099.627-3.1.001-.005.084-.413.76-3.56.671-3.144a.555.555 0 01.515-.417l11.089-.005c.235.002.383-.185.33-.414zm14.275-7.24l-.854.003h-3.549a.904.904 0 00-.667.353l-7.849 11.498c-.132.194-.283.166-.335-.062l-.578-2.533a.562.562 0 00-.522-.416h-5.045c-.235 0-.374.184-.31.409l2.261 7.921c.064.226.069.596.011.824l-.985 3.833c-.059.228.085.413.32.413h4.987a.58.58 0 00.532-.413l.986-3.833a2.52 2.52 0 01.363-.755l12.742-16.911c.142-.188.065-.341-.169-.339l-1.339.008zm-40.086 9.919v-.004a.514.514 0 01-.499.441h-6.397c-.222 0-.334-.15-.301-.336l.006-.015-.004.002.003-.021.029-.109c.611-1.624 1.855-2.69 4.194-2.69 2.634-.001 3.148 1.285 2.969 2.732zm-1.877-7.384c-8.211 0-10.157 4.984-11.249 10.015-1.091 5.128-.998 9.921 7.5 9.921h1.03l.256-.001h.06l1.02-.003h.018c2.244-.009 4.495-.026 5.406-.033a.553.553 0 00.509-.42l.344-1.681.067-.327.41-2.006a.335.335 0 00-.341-.418h-7.639c-3.039 0-3.941-.807-3.608-3.181H84.18l-.001.001.008-.001a.503.503 0 00.445-.315l.029-.106-.001.001c1.813-6.839 1.293-11.445-6.474-11.446zm-38.81 7.358l-.116.409v.001l-.922 3.268-.922 3.267a.596.596 0 01-.543.411h-4.88c-3.702 0-4.604-2.896-3.702-7.166.901-4.368 2.668-7.083 6.312-7.358 4.98-.376 5.976 3.126 4.773 7.168zm3.348 7.105s2.301-5.588 2.823-8.814c.713-4.319-1.45-10.585-9.804-10.585-8.306 0-11.914 5.981-13.29 12.484-1.376 6.55.427 12.293 8.686 12.246l6.516-.024 6.089-.022a.59.59 0 00.534-.414l1.061-4.046c.059-.228-.084-.414-.319-.416l-1.017-.006-1.017-.006c-.199-.001-.313-.131-.289-.302l.027-.095zm41.12-3.741a.28.28 0 11-.56.001.28.28 0 01.56-.001z"/>
  </symbol>

  <symbol id="gulp" viewBox="0 0 128 128">
    <path fill-rule="evenodd" clip-rule="evenodd" fill="#EB4A4B" d="M36.965 35.459c.877 9.232 1.747 18.412 2.637 27.798 1.451-2.495 2.501-4.888 4.085-6.848 1.475-1.826 3.334-3.511 5.357-4.678 2.641-1.524 6.104-.089 6.96 2.614.23.725-.319 1.697-.511 2.556-.646-.341-1.479-.529-1.901-1.051-1.793-2.217-2.873-2.479-4.856-.563-3.699 3.576-5.779 8.056-6.573 13.091-.153.974.456 2.067.713 3.105 1.011-.348 2.185-.476 3.002-1.084 2.656-1.977 4.302-4.666 5.21-7.88.197-.696 1.265-1.145 1.933-1.708.32.658 1.05 1.433.897 1.954a373.814 373.814 0 01-4.536 14.429c-.162.484-1.051.725-1.604 1.079-.223-.636-.692-1.302-.617-1.901.168-1.358.605-2.683.91-3.927l-7.24 3.333c.405 4.622.825 9.807 1.323 14.985.382 3.954 1.029 4.978 4.923 5.728 4.544.875 9.173 1.434 13.792 1.774a60.391 60.391 0 0020.23-1.904c2.472-.664 3.458-2.29 3.635-4.717.162-2.235.524-4.456.775-6.685.493-4.391.972-8.783 1.476-13.358-1.667 1.056-2.978 2.238-4.511 2.739-1.116.365-2.524-.169-3.803-.303.245-1.174.23-2.497.796-3.487.922-1.618 2.224-3.021 3.364-4.515l-.491-.591c-.817.483-1.832.8-2.413 1.485-1.182 1.394-2.339 2.886-3.13 4.52-1.324 2.735-2.333 5.622-3.518 8.426-.515 1.216-.959 3.076-2.684 2.366-1.845-.761-.547-2.386-.114-3.542.689-1.844 1.599-3.606 2.215-4.962-1.746.208-3.516.459-5.294.614-.752.064-1.646-.348-2.261-.07-2.045.924-3.341.553-3.766-1.711-.947.615-1.749 1.448-2.694 1.672-1.147.273-2.703.452-3.543-.121-.673-.459-.918-2.184-.688-3.196.457-2.012 1.311-3.946 2.122-5.859.502-1.185 1.007-3.077 2.701-2.253 1.674.813.154 2.185-.232 3.286-.599 1.702-1.209 3.401-1.813 5.101l.96.58c.914-.794 2.053-1.441 2.693-2.415 1.048-1.592 1.681-3.452 2.673-5.086.411-.677 1.296-1.065 1.967-1.584.136.862.462 1.748.354 2.58-.107.841-.698 1.61-.981 2.442-.425 1.246-.768 2.52-1.2 3.969 2.043.078 2.918-.782 3.495-2.299 1.826-4.793 3.672-9.581 5.679-14.3.343-.808 1.509-1.264 2.296-1.884.091.974.525 2.078.216 2.899-1.645 4.349-3.492 8.62-5.228 12.935-.293.727-.387 1.534-.572 2.304 3.059-1.375 5.612-2.895 6.544-6.146.228-.79 1.162-1.377 1.771-2.058l1.416 1.5c.43-.362.824-.774 1.291-1.075 1.47-.947 3.053-1.782 4.603-.315 1.604 1.517.39 2.995-.448 4.307-.912 1.431-2.029 2.73-3.057 4.086 2.312-1.49 5.469-2.158 5.889-5.378 1.024-7.865 1.924-15.746 2.837-23.625.271-2.332.416-4.679.627-7.109-18.21 4.409-36.029 4.436-54.088-.069zm7.816 61.369c.877 2.317 2.209 4.593 2.558 7.011.737 5.147.924 10.372 1.446 15.554.076.755.565 1.792 1.175 2.124 8.98 4.88 18.047 5.726 27.209.389 1.367-.796 1.62-1.847 1.797-3.325.857-7.181-1.051-14.798 3.54-21.56-12.856 3.189-25.403 3.288-37.725-.193zm30.991-60.08c4.362-.421 8.671-1.445 12.985-2.291.813-.159 1.535-.778 2.299-1.185-1.007-.885-1.878-1.311-2.788-1.418-4.53-.535-9.076-.947-13.603-1.508-.684-.085-1.905-.929-1.854-1.083 1.321-3.98 1.256-8.485 4.254-11.839 3.789-4.24 7.617-8.443 11.416-12.648-2.826-3.04-2.864-3.044-5.425-.383-1.448 1.504-2.771 3.15-4.342 4.512-5.813 5.038-9.896 11.005-10.692 18.872-.183 1.805-1.174 2.457-3.069 2.485-6.256.091-12.519.263-18.761.674-3.093.203-6.148.997-9.221 1.523l-.028 1.149c1.923.593 3.809 1.372 5.773 1.749 10.944 2.098 21.991 2.458 33.056 1.391zM72.276 34c-2.477 2-4.524 2-6.501 0h6.501z"/>
  </symbol>

  <symbol id="git" viewBox="0 0 128 128">
    <path fill="#31251C" d="M76.397 55.676c-2.737 0-4.775 1.344-4.775 4.579 0 2.437 1.343 4.129 4.628 4.129 2.784 0 4.676-1.641 4.676-4.23 0-2.934-1.693-4.478-4.529-4.478zm-5.471 22.84c-.648.795-1.294 1.64-1.294 2.637 0 1.989 2.536 2.587 6.021 2.587 2.885 0 6.816-.202 6.816-2.885 0-1.595-1.892-1.693-4.281-1.843l-7.262-.496zm14.725-22.69c.895 1.145 1.842 2.737 1.842 5.026 0 5.522-4.329 8.756-10.597 8.756-1.594 0-3.037-.198-3.932-.447l-1.642 2.637 4.875.297c8.608.549 13.682.798 13.682 7.413 0 5.723-5.024 8.955-13.682 8.955-9.006 0-12.438-2.289-12.438-6.218 0-2.24.996-3.431 2.737-5.076-1.643-.694-2.189-1.937-2.189-3.281 0-1.095.547-2.09 1.443-3.036.896-.944 1.891-1.891 3.084-2.985-2.438-1.194-4.278-3.781-4.278-7.464 0-5.721 3.781-9.65 11.393-9.65 2.14 0 3.435.197 4.578.498h9.703v4.228l-4.579.347zm13.332-9.04c-2.837 0-4.479-1.643-4.479-4.48 0-2.833 1.642-4.377 4.479-4.377 2.886 0 4.527 1.543 4.527 4.377.001 2.837-1.641 4.48-4.527 4.48zm-6.42 29.9v-3.929l2.539-.348c.696-.1.795-.249.795-.997V56.785c0-.546-.148-.896-.647-1.044l-2.687-.946.547-4.028h10.301v20.646c0 .798.048.896.796.997l2.538.348v3.929H92.563v-.001zm33.857-1.93c-2.141 1.043-5.274 1.99-8.112 1.99-5.92 0-8.158-2.386-8.158-8.011V55.7c0-.297 0-.497-.399-.497h-3.482v-4.428c4.38-.499 6.12-2.688 6.667-8.111h4.728v7.067c0 .347 0 .498.398.498h7.015v4.975h-7.413v11.89c0 2.935.697 4.079 3.383 4.079 1.395 0 2.836-.347 4.03-.795l1.343 4.378z"/><path fill="#F34F29" d="M52.7 61.7L29.951 38.952a3.355 3.355 0 00-4.744 0l-4.724 4.724 5.991 5.992a3.983 3.983 0 014.1.956 3.988 3.988 0 01.947 4.125l5.775 5.775a3.988 3.988 0 014.125 6.593 3.992 3.992 0 01-6.516-4.342l-5.386-5.386-.001 14.174a3.992 3.992 0 011.056 6.401 3.993 3.993 0 11-4.339-6.518V57.141a3.99 3.99 0 01-2.167-5.236l-5.906-5.908L2.563 61.595a3.356 3.356 0 000 4.747L25.312 89.09a3.357 3.357 0 004.746 0L52.7 66.446a3.355 3.355 0 000-4.746z"/><path fill="none" d="M1.58 37.928h124.84v52.143H1.58z"/>
  </symbol>

  <symbol id="figma" viewBox="0 0 128 128">
    <path fill="#0acf83" d="M45.5 129c11.9 0 21.5-9.6 21.5-21.5V86H45.5C33.6 86 24 95.6 24 107.5S33.6 129 45.5 129zm0 0"/><path fill="#a259ff" d="M24 64.5C24 52.6 33.6 43 45.5 43H67v43H45.5C33.6 86 24 76.4 24 64.5zm0 0"/><path fill="#f24e1e" d="M24 21.5C24 9.6 33.6 0 45.5 0H67v43H45.5C33.6 43 24 33.4 24 21.5zm0 0"/><path fill="#ff7262" d="M67 0h21.5C100.4 0 110 9.6 110 21.5S100.4 43 88.5 43H67zm0 0"/><path fill="#1abcfe" d="M110 64.5c0 11.9-9.6 21.5-21.5 21.5S67 76.4 67 64.5 76.6 43 88.5 43 110 52.6 110 64.5zm0 0"/>
  </symbol>

  <symbol id="vscode" viewBox="0 0 128 128">
    <mask id="mask0" mask-type="alpha" maskUnits="userSpaceOnUse" x="0" y="0" width="100" height="100">
    <path fill-rule="evenodd" clip-rule="evenodd" d="M70.9119 99.3171C72.4869 99.9307 74.2828 99.8914 75.8725 99.1264L96.4608 89.2197C98.6242 88.1787 100 85.9892 100 83.5872V16.4133C100 14.0113 98.6243 11.8218 96.4609 10.7808L75.8725 0.873756C73.7862 -0.130129 71.3446 0.11576 69.5135 1.44695C69.252 1.63711 69.0028 1.84943 68.769 2.08341L29.3551 38.0415L12.1872 25.0096C10.589 23.7965 8.35363 23.8959 6.86933 25.2461L1.36303 30.2549C-0.452552 31.9064 -0.454633 34.7627 1.35853 36.417L16.2471 50.0001L1.35853 63.5832C-0.454633 65.2374 -0.452552 68.0938 1.36303 69.7453L6.86933 74.7541C8.35363 76.1043 10.589 76.2037 12.1872 74.9905L29.3551 61.9587L68.769 97.9167C69.3925 98.5406 70.1246 99.0104 70.9119 99.3171ZM75.0152 27.2989L45.1091 50.0001L75.0152 72.7012V27.2989Z" fill="white"/>
    </mask>
    <g mask="url(#mask0)">
    <path d="M96.4614 10.7962L75.8569 0.875542C73.4719 -0.272773 70.6217 0.211611 68.75 2.08333L1.29858 63.5832C-0.515693 65.2373 -0.513607 68.0937 1.30308 69.7452L6.81272 74.754C8.29793 76.1042 10.5347 76.2036 12.1338 74.9905L93.3609 13.3699C96.086 11.3026 100 13.2462 100 16.6667V16.4275C100 14.0265 98.6246 11.8378 96.4614 10.7962Z" fill="#0065A9"/>
    <g filter="url(#filter0_d)">
    <path d="M96.4614 89.2038L75.8569 99.1245C73.4719 100.273 70.6217 99.7884 68.75 97.9167L1.29858 36.4169C-0.515693 34.7627 -0.513607 31.9063 1.30308 30.2548L6.81272 25.246C8.29793 23.8958 10.5347 23.7964 12.1338 25.0095L93.3609 86.6301C96.086 88.6974 100 86.7538 100 83.3334V83.5726C100 85.9735 98.6246 88.1622 96.4614 89.2038Z" fill="#007ACC"/>
    </g>
    <g filter="url(#filter1_d)">
    <path d="M75.8578 99.1263C73.4721 100.274 70.6219 99.7885 68.75 97.9166C71.0564 100.223 75 98.5895 75 95.3278V4.67213C75 1.41039 71.0564 -0.223106 68.75 2.08329C70.6219 0.211402 73.4721 -0.273666 75.8578 0.873633L96.4587 10.7807C98.6234 11.8217 100 14.0112 100 16.4132V83.5871C100 85.9891 98.6234 88.1786 96.4586 89.2196L75.8578 99.1263Z" fill="#1F9CF0"/>
    </g>
    <g style="mix-blend-mode:overlay" opacity="0.25">
    <path fill-rule="evenodd" clip-rule="evenodd" d="M70.8511 99.3171C72.4261 99.9306 74.2221 99.8913 75.8117 99.1264L96.4 89.2197C98.5634 88.1787 99.9392 85.9892 99.9392 83.5871V16.4133C99.9392 14.0112 98.5635 11.8217 96.4001 10.7807L75.8117 0.873695C73.7255 -0.13019 71.2838 0.115699 69.4527 1.44688C69.1912 1.63705 68.942 1.84937 68.7082 2.08335L29.2943 38.0414L12.1264 25.0096C10.5283 23.7964 8.29285 23.8959 6.80855 25.246L1.30225 30.2548C-0.513334 31.9064 -0.515415 34.7627 1.29775 36.4169L16.1863 50L1.29775 63.5832C-0.515415 65.2374 -0.513334 68.0937 1.30225 69.7452L6.80855 74.754C8.29285 76.1042 10.5283 76.2036 12.1264 74.9905L29.2943 61.9586L68.7082 97.9167C69.3317 98.5405 70.0638 99.0104 70.8511 99.3171ZM74.9544 27.2989L45.0483 50L74.9544 72.7012V27.2989Z" fill="url(#paint0_linear)"/>
    </g>
    </g>
    <defs>
    <filter id="filter0_d" x="-8.39411" y="15.8291" width="116.727" height="92.2456" filterUnits="userSpaceOnUse" color-interpolation-filters="sRGB">
    <feFlood flood-opacity="0" result="BackgroundImageFix"/>
    <feColorMatrix in="SourceAlpha" type="matrix" values="0 0 0 0 0 0 0 0 0 0 0 0 0 0 0 0 0 0 127 0"/>
    <feOffset/>
    <feGaussianBlur stdDeviation="4.16667"/>
    <feColorMatrix type="matrix" values="0 0 0 0 0 0 0 0 0 0 0 0 0 0 0 0 0 0 0.25 0"/>
    <feBlend mode="overlay" in2="BackgroundImageFix" result="effect1_dropShadow"/>
    <feBlend mode="normal" in="SourceGraphic" in2="effect1_dropShadow" result="shape"/>
    </filter>
    <filter id="filter1_d" x="60.4167" y="-8.07558" width="47.9167" height="116.151" filterUnits="userSpaceOnUse" color-interpolation-filters="sRGB">
    <feFlood flood-opacity="0" result="BackgroundImageFix"/>
    <feColorMatrix in="SourceAlpha" type="matrix" values="0 0 0 0 0 0 0 0 0 0 0 0 0 0 0 0 0 0 127 0"/>
    <feOffset/>
    <feGaussianBlur stdDeviation="4.16667"/>
    <feColorMatrix type="matrix" values="0 0 0 0 0 0 0 0 0 0 0 0 0 0 0 0 0 0 0.25 0"/>
    <feBlend mode="overlay" in2="BackgroundImageFix" result="effect1_dropShadow"/>
    <feBlend mode="normal" in="SourceGraphic" in2="effect1_dropShadow" result="shape"/>
    </filter>
    <linearGradient id="paint0_linear" x1="49.9392" y1="0.257812" x2="49.9392" y2="99.7423" gradientUnits="userSpaceOnUse">
    <stop stop-color="white"/>
    <stop offset="1" stop-color="white" stop-opacity="0"/>
    </linearGradient>
    </defs>
  </symbol>
</svg>
